<mxfile host="app.diagrams.net" modified="2020-12-15T09:16:27.773Z" agent="5.0 (Macintosh; Intel Mac OS X 10_15_7) AppleWebKit/537.36 (KHTML, like Gecko) Chrome/87.0.4280.88 Safari/537.36" etag="L8NsSvAze3CWxXIQ-VBY" version="13.10.9" type="github">
  <diagram id="ffsiYnCcwwFPN98j61Fr" name="Page-1">
    <mxGraphModel dx="946" dy="623" grid="1" gridSize="10" guides="1" tooltips="1" connect="1" arrows="1" fold="1" page="1" pageScale="1" pageWidth="850" pageHeight="1100" math="0" shadow="0">
      <root>
        <mxCell id="0" />
        <mxCell id="1" parent="0" />
        <mxCell id="blW2u0BSeLsFs8bw2e72-104" value="" style="rounded=0;whiteSpace=wrap;html=1;strokeColor=#3700CC;fontColor=#ffffff;fillColor=none;" parent="1" vertex="1">
          <mxGeometry x="40" y="110" width="280" height="95" as="geometry" />
        </mxCell>
        <mxCell id="blW2u0BSeLsFs8bw2e72-4" value="" style="rounded=0;whiteSpace=wrap;html=1;strokeColor=#3700CC;fontColor=#ffffff;fillColor=none;" parent="1" vertex="1">
          <mxGeometry x="40" y="230" width="650" height="320" as="geometry" />
        </mxCell>
        <mxCell id="zjrWDTnNjmW-lEqMyYDh-10" style="edgeStyle=orthogonalEdgeStyle;rounded=0;orthogonalLoop=1;jettySize=auto;html=1;exitX=1;exitY=0;exitDx=0;exitDy=0;" edge="1" parent="1">
          <mxGeometry relative="1" as="geometry">
            <mxPoint x="673" y="320" as="sourcePoint" />
            <mxPoint x="672.5" y="197.95359308744708" as="targetPoint" />
          </mxGeometry>
        </mxCell>
        <mxCell id="zjrWDTnNjmW-lEqMyYDh-11" style="edgeStyle=orthogonalEdgeStyle;rounded=0;orthogonalLoop=1;jettySize=auto;html=1;exitX=0.75;exitY=0;exitDx=0;exitDy=0;" edge="1" parent="1" source="blW2u0BSeLsFs8bw2e72-19" target="blW2u0BSeLsFs8bw2e72-70">
          <mxGeometry relative="1" as="geometry" />
        </mxCell>
        <mxCell id="zjrWDTnNjmW-lEqMyYDh-13" style="edgeStyle=orthogonalEdgeStyle;rounded=0;orthogonalLoop=1;jettySize=auto;html=1;exitX=0.25;exitY=0;exitDx=0;exitDy=0;entryX=0.75;entryY=1;entryDx=0;entryDy=0;" edge="1" parent="1" source="blW2u0BSeLsFs8bw2e72-19" target="zjrWDTnNjmW-lEqMyYDh-9">
          <mxGeometry relative="1" as="geometry" />
        </mxCell>
        <mxCell id="blW2u0BSeLsFs8bw2e72-19" value="" style="rounded=0;whiteSpace=wrap;html=1;strokeColor=#3700CC;fontColor=#ffffff;fillColor=none;" parent="1" vertex="1">
          <mxGeometry x="403" y="320" width="270" height="110" as="geometry" />
        </mxCell>
        <mxCell id="blW2u0BSeLsFs8bw2e72-74" style="edgeStyle=orthogonalEdgeStyle;rounded=0;orthogonalLoop=1;jettySize=auto;html=1;exitX=0.683;exitY=1.002;exitDx=0;exitDy=0;entryX=0.5;entryY=0;entryDx=0;entryDy=0;exitPerimeter=0;" parent="1" source="blW2u0BSeLsFs8bw2e72-4" target="blW2u0BSeLsFs8bw2e72-47" edge="1">
          <mxGeometry relative="1" as="geometry" />
        </mxCell>
        <mxCell id="blW2u0BSeLsFs8bw2e72-75" style="edgeStyle=orthogonalEdgeStyle;rounded=0;orthogonalLoop=1;jettySize=auto;html=1;entryX=0.394;entryY=0;entryDx=0;entryDy=0;entryPerimeter=0;" parent="1" target="blW2u0BSeLsFs8bw2e72-49" edge="1">
          <mxGeometry relative="1" as="geometry">
            <mxPoint x="570" y="550" as="sourcePoint" />
          </mxGeometry>
        </mxCell>
        <mxCell id="blW2u0BSeLsFs8bw2e72-77" style="edgeStyle=orthogonalEdgeStyle;rounded=0;orthogonalLoop=1;jettySize=auto;html=1;exitX=0.956;exitY=1.002;exitDx=0;exitDy=0;entryX=0.5;entryY=0;entryDx=0;entryDy=0;exitPerimeter=0;" parent="1" source="blW2u0BSeLsFs8bw2e72-4" target="blW2u0BSeLsFs8bw2e72-46" edge="1">
          <mxGeometry relative="1" as="geometry" />
        </mxCell>
        <mxCell id="blW2u0BSeLsFs8bw2e72-42" style="edgeStyle=orthogonalEdgeStyle;rounded=0;orthogonalLoop=1;jettySize=auto;html=1;exitX=0.5;exitY=1;exitDx=0;exitDy=0;exitPerimeter=0;entryX=0.103;entryY=0;entryDx=0;entryDy=0;entryPerimeter=0;" parent="1" source="blW2u0BSeLsFs8bw2e72-1" edge="1">
          <mxGeometry relative="1" as="geometry">
            <mxPoint x="514.6099999999999" y="320" as="targetPoint" />
          </mxGeometry>
        </mxCell>
        <mxCell id="blW2u0BSeLsFs8bw2e72-1" value="" style="outlineConnect=0;dashed=0;verticalLabelPosition=bottom;verticalAlign=top;align=center;html=1;shape=mxgraph.aws3.router;fillColor=#F58534;gradientColor=none;" parent="1" vertex="1">
          <mxGeometry x="489.6" y="240" width="50" height="50" as="geometry" />
        </mxCell>
        <mxCell id="zjrWDTnNjmW-lEqMyYDh-2" style="edgeStyle=orthogonalEdgeStyle;rounded=0;orthogonalLoop=1;jettySize=auto;html=1;exitX=0.5;exitY=1;exitDx=0;exitDy=0;entryX=0;entryY=0.5;entryDx=0;entryDy=0;" edge="1" parent="1" source="blW2u0BSeLsFs8bw2e72-7" target="zjrWDTnNjmW-lEqMyYDh-1">
          <mxGeometry relative="1" as="geometry" />
        </mxCell>
        <mxCell id="blW2u0BSeLsFs8bw2e72-7" value="" style="shape=image;html=1;verticalAlign=top;verticalLabelPosition=bottom;labelBackgroundColor=#ffffff;imageAspect=0;aspect=fixed;image=https://cdn4.iconfinder.com/data/icons/48-bubbles/48/29.Mac-128.png;fillColor=none;" parent="1" vertex="1">
          <mxGeometry x="423.79999999999995" y="40" width="50" height="50" as="geometry" />
        </mxCell>
        <mxCell id="zjrWDTnNjmW-lEqMyYDh-3" style="edgeStyle=orthogonalEdgeStyle;rounded=0;orthogonalLoop=1;jettySize=auto;html=1;exitX=0.5;exitY=1;exitDx=0;exitDy=0;" edge="1" parent="1" source="blW2u0BSeLsFs8bw2e72-9" target="zjrWDTnNjmW-lEqMyYDh-1">
          <mxGeometry relative="1" as="geometry" />
        </mxCell>
        <mxCell id="blW2u0BSeLsFs8bw2e72-9" value="" style="shape=image;html=1;verticalAlign=top;verticalLabelPosition=bottom;labelBackgroundColor=#ffffff;imageAspect=0;aspect=fixed;image=https://cdn4.iconfinder.com/data/icons/essential-app-1/16/mobile-phone-smart-screen-128.png;fillColor=none;" parent="1" vertex="1">
          <mxGeometry x="489.59999999999997" y="40" width="50" height="50" as="geometry" />
        </mxCell>
        <mxCell id="blW2u0BSeLsFs8bw2e72-35" style="edgeStyle=orthogonalEdgeStyle;rounded=0;orthogonalLoop=1;jettySize=auto;html=1;exitX=0.5;exitY=1;exitDx=0;exitDy=0;entryX=0.5;entryY=0;entryDx=0;entryDy=0;" parent="1" source="blW2u0BSeLsFs8bw2e72-18" target="blW2u0BSeLsFs8bw2e72-32" edge="1">
          <mxGeometry relative="1" as="geometry" />
        </mxCell>
        <mxCell id="blW2u0BSeLsFs8bw2e72-18" value="" style="shape=image;html=1;verticalAlign=top;verticalLabelPosition=bottom;labelBackgroundColor=#ffffff;imageAspect=0;aspect=fixed;image=https://cdn4.iconfinder.com/data/icons/logos-brands-5/24/postgresql-128.png;fillColor=none;" parent="1" vertex="1">
          <mxGeometry x="290.42" y="480" width="58" height="58" as="geometry" />
        </mxCell>
        <mxCell id="blW2u0BSeLsFs8bw2e72-38" style="edgeStyle=orthogonalEdgeStyle;rounded=0;orthogonalLoop=1;jettySize=auto;html=1;exitX=0.5;exitY=1;exitDx=0;exitDy=0;entryX=0;entryY=0.5;entryDx=0;entryDy=0;" parent="1" source="blW2u0BSeLsFs8bw2e72-26" target="blW2u0BSeLsFs8bw2e72-18" edge="1">
          <mxGeometry relative="1" as="geometry" />
        </mxCell>
        <mxCell id="blW2u0BSeLsFs8bw2e72-26" value="" style="rounded=0;whiteSpace=wrap;html=1;strokeColor=#3700CC;fontColor=#ffffff;fillColor=none;" parent="1" vertex="1">
          <mxGeometry x="50" y="320" width="190" height="110" as="geometry" />
        </mxCell>
        <mxCell id="blW2u0BSeLsFs8bw2e72-28" value="" style="shadow=0;dashed=0;html=1;strokeColor=none;fillColor=#4495D1;labelPosition=center;verticalLabelPosition=bottom;verticalAlign=top;align=center;outlineConnect=0;shape=mxgraph.veeam.2d.virtual_machine;" parent="1" vertex="1">
          <mxGeometry x="63.14999999999996" y="355" width="47.8" height="50" as="geometry" />
        </mxCell>
        <mxCell id="blW2u0BSeLsFs8bw2e72-29" value="" style="shadow=0;dashed=0;html=1;strokeColor=none;fillColor=#4495D1;labelPosition=center;verticalLabelPosition=bottom;verticalAlign=top;align=center;outlineConnect=0;shape=mxgraph.veeam.2d.virtual_machine;" parent="1" vertex="1">
          <mxGeometry x="127.04999999999998" y="355" width="47.8" height="50" as="geometry" />
        </mxCell>
        <mxCell id="blW2u0BSeLsFs8bw2e72-30" value="" style="shadow=0;dashed=0;html=1;strokeColor=none;fillColor=#4495D1;labelPosition=center;verticalLabelPosition=bottom;verticalAlign=top;align=center;outlineConnect=0;shape=mxgraph.veeam.2d.virtual_machine;" parent="1" vertex="1">
          <mxGeometry x="187.04999999999998" y="355" width="47.8" height="50" as="geometry" />
        </mxCell>
        <mxCell id="blW2u0BSeLsFs8bw2e72-32" value="" style="shape=image;html=1;verticalAlign=top;verticalLabelPosition=bottom;labelBackgroundColor=#ffffff;imageAspect=0;aspect=fixed;image=https://cdn4.iconfinder.com/data/icons/logos-brands-5/24/postgresql-128.png;fillColor=none;" parent="1" vertex="1">
          <mxGeometry x="290.42" y="598.5" width="58" height="58" as="geometry" />
        </mxCell>
        <mxCell id="blW2u0BSeLsFs8bw2e72-33" value="Primary" style="text;html=1;strokeColor=none;fillColor=none;align=center;verticalAlign=middle;whiteSpace=wrap;rounded=0;" parent="1" vertex="1">
          <mxGeometry x="357.8" y="470" width="40" height="20" as="geometry" />
        </mxCell>
        <mxCell id="blW2u0BSeLsFs8bw2e72-34" value="Replica" style="text;html=1;strokeColor=none;fillColor=none;align=center;verticalAlign=middle;whiteSpace=wrap;rounded=0;" parent="1" vertex="1">
          <mxGeometry x="352.79999999999995" y="577.5" width="40" height="20" as="geometry" />
        </mxCell>
        <mxCell id="blW2u0BSeLsFs8bw2e72-45" value="" style="shape=image;verticalLabelPosition=bottom;labelBackgroundColor=#ffffff;verticalAlign=top;aspect=fixed;imageAspect=0;image=https://we-work-remotely.imgix.net/logos/0015/6753/logo.gif?ixlib=rails-4.0.0&amp;fit=fill&amp;w=200&amp;h=200&amp;bg=FFFFFF&amp;pad=5;" parent="1" vertex="1">
          <mxGeometry x="740" y="342.49999999999994" width="65" height="65" as="geometry" />
        </mxCell>
        <mxCell id="blW2u0BSeLsFs8bw2e72-46" value="" style="shape=image;verticalLabelPosition=bottom;labelBackgroundColor=#ffffff;verticalAlign=top;aspect=fixed;imageAspect=0;image=data:image/png,iVBORw0KGgoAAAANSUhEUgAAAIIAAACCCAMAAAC93eDPAAAAbFBMVEX////5nRz5nyD//fr95sb//Pn93bH5oij8zIn/+fL//Pf+8d/80ZT+9ur6qTj6sk3+7tf7xXn7uFv5pS76r0f6tVT+6c37u2H7v2r8yoX8yH/916L94rv805r6rUH/9+37wnH926v95MD+8NtwEWZJAAADxUlEQVR4nO2a2XaDIBCGBY1i3DfcjSbv/461sY0rKgb0hu8q55Q6vwyzAEqSQCAQCAQCgUAgWEPOL1eQNBcr0GOoX6vArUByqYCbCQF48rUhr/5VtQEANmubD6zmyEuiyg40DTgP8sh7XoFfEDPbsqumcaiBIf6dOPyFgm6MtqKSxnpehxDMSEhusErnMyj73ryCfG1unfxwGaNwMAha39k38phgvsWcj79hc6r3q5XgpjbRfMsk6+o49xacFZBXyxY4W7UPYPGx/SpKzyeNLtaMrGCZ1ar9VkGOn02Jar8iO+qXY4lRLvwN+/uxj1QHy1x3ABUQ0wt41QvRfxz6Iq3ELO0fiEclYisA1FcLAN56EZ3isguCjwIqAVbNXMBS9iZzM9ezyxGgSqOgYJgH/rFdGh8k7AWAhCYn5ux9AAIaJxjs46CdApoWhccUVFTF2QyYC9BKunTUdtm4SSN2UwHTg72yjEufRXmE2Vd96r2ov/RKgL7fLchFfHwuqvx4kzricbBhilluW2U13LY4JkAGQwFvCioRkUobhbtQ97qDwwT8s6t6w7jgMgH/WFt9bJTzPz5SV/JEVG4lIVk3DNdVOrD7MqwjQUuYCC1ulnPQ3ehOX/zQ1iYJBkZIfR2QIEnlLFU5SJm9zc0tyiwOiZNmZ/P/2Q8ePjfMion7dSXPiBvqjso89vY91t9pje2p49k3VBRvhm6Q0nSQJG5J6/x8FP26YsY7ShrDmMXDB+lFti932uaXB0yL3J6ps7OURjySltWsnHpNPFAfOFPY4o6cbct/BIiHByQJ7RVgs+pc5ni7BFR8CneHvOP0xTl6ureT+1Ys+gpfAS3GajbyOQTBnCeVAD6LghQW0UyArCI+gSEvJodotgYsM3B4dVTGPD07MwFuDQE3BW0LMxEw28fL6u9MhTy7ypEr7OnhrtXdRVVMbqJIuL0rgnyy6PHf4TVfBX2i1szxku888J4bPlWq5/Gu2NAbv6mFPnmLuwJJMlszyXgXh5PePScokPRgnInkZrhEbW5bzCEjIwMPnKdgyNAD7yA5WcGtmZbvgMWmYT8TD5yvQEnm1UI7U4G11EBpp/QsHxb2kicrkNKZAsi/cRzjXq5AkiY36pDz9zpLjD0BOe8fFlEuVyDJw0021WUgO+LLFQz62KsU9Ivhus8Y9csV/GeG8v37hbyG63n4Mu9L5u5qHvt5U9bnS0AfBZLnxt7T57x5WKDpP1NJDD+yqO6I2YBB+lGT5liNTlcgWWn/u4zj5PTWWSAQCAQCgUAgOIsfU7cyNL6xrl4AAAAASUVORK5CYII=;" parent="1" vertex="1">
          <mxGeometry x="634" y="597.5000000000001" width="55" height="55" as="geometry" />
        </mxCell>
        <mxCell id="blW2u0BSeLsFs8bw2e72-47" value="" style="shape=image;verticalLabelPosition=bottom;labelBackgroundColor=#ffffff;verticalAlign=top;aspect=fixed;imageAspect=0;image=https://pbs.twimg.com/profile_images/958595176603308034/dwQR9YHl.jpg;" parent="1" vertex="1">
          <mxGeometry x="459" y="602.5" width="50" height="50" as="geometry" />
        </mxCell>
        <mxCell id="blW2u0BSeLsFs8bw2e72-48" value="" style="shape=image;verticalLabelPosition=bottom;labelBackgroundColor=#ffffff;verticalAlign=top;aspect=fixed;imageAspect=0;image=https://assets.stickpng.com/images/58482feacef1014c0b5e4a8d.png;" parent="1" vertex="1">
          <mxGeometry x="740" y="260.00000000000006" width="57.25" height="44.92" as="geometry" />
        </mxCell>
        <mxCell id="blW2u0BSeLsFs8bw2e72-49" value="" style="shape=image;verticalLabelPosition=bottom;labelBackgroundColor=#ffffff;verticalAlign=top;aspect=fixed;imageAspect=0;image=https://cdn.worldvectorlogo.com/logos/librato.svg;" parent="1" vertex="1">
          <mxGeometry x="544.01" y="600" width="65.99" height="50" as="geometry" />
        </mxCell>
        <mxCell id="blW2u0BSeLsFs8bw2e72-50" value="" style="shape=image;verticalLabelPosition=bottom;labelBackgroundColor=#ffffff;verticalAlign=top;aspect=fixed;imageAspect=0;image=data:image/png,iVBORw0KGgoAAAANSUhEUgAAAPoAAADKCAMAAAC7SK2iAAAAnFBMVEX///8AiZYdytP6/f8ezdYAhZIAgY8Ax9EAhJIAgI4Aipf7/v4XucMcyNERqrUPpK8ZwMoIlaGoz9QTrrm72d3t9vcFkJxa1dw0mKPY6uyUxMrQ8vTh7/HQ5ejv9/i77O9Ro60VtL5orrat6Oyc5Oh32+EMnqlKnajj9/nD3+Kx1dlvsbml5uqO4OXJ8PKIvsWOwcdJ0tnd9/hw2d/dsklpAAARmElEQVR4nO2diXraOBCAsbGMDwi3gYRQQlJoQlKS5v3fbX0Buj0jy6b9vp3dbRPWgH7PaDQzkqVO539pW+LN6nU2uT8dd7vtYblcJkn6x/Kw3R2P92+zx3n31g20LynybHLcLkkY+n4QkIAQ4jjpv8UfJH0hCHw/JMlhd5o8zm/dXjsSr99Oh4iEGbEDkPQ2+CQ6nN5Wm1s3vY6sJscl8X0QMn8HAj9Ynmb/ov7jx/utD9W00gD8MDr+W/irHLsO9VUCP1yeXuNbI0FkM9slIbGDXUqqfWf39pd3/fVkGxh17Wp8P9jN/lrdzydLP2gC+0LvHFe3hpRI/LYNm+QuJAiTyV9m+KtjQ3YuSDroHde3xr1Id7JsQeFXCcLD7NbMuayOjt8idyH+cnJr7s7rwdzQifAD4r1+dH9T8EmEByd5skKiZLzf74eppH+No/Q1bAgUODfTfDxBW3oa6UT7u2l/5Hq8DEb96TC7BYgb4Cc36fPxPRKcBNF+2h9kmK5c8jvQv8Pwh4f2B/pJhPHpGfZTpmoFNHsD3NF0D+3/xD+2O87PEozGSXIHxL7iD/pD4M0lQYtdfrVEgBNnOEJhX/FHwwike3/ZUoyz2YVwbjLuG3Gf6ftjSLcnYSsD3T3cBQfR3aAGeAE/uIOovgXFP8JtnSRTtx53Se9OEwB8wz0+3iHAn2oqnIL3ngCa93cNZvNv4HjLJngBP62GD5KmjH6zhbo34kytghfwd5XsJGwmuJsRaAxDhlb6uAA/2Fe2IDzZB4/BIxoZj5oAz+FHSRW8v7Xd4VeV33kGJ9OmwHP4Sqsnid24dgJ17GQ8aJIcongSWZyxiLdg8rtmwXP4YZXiA2vJ3BoSUOQSqXp5L5X0r69Cit97xuz9qIr90Q75DOzY9wrqr8XH88OvzdX/xJv5w/PL4suQ3xuMK9pkh/0E9eyBaOwp2uLlQe1y44eXhRG+N2yBHd7N+xx5qu0PDfYV/+MLT+89VXRCv25gFy+hYxrfzXvexy/w1/z68LDw3qiqRfXY17BKQSoJM6b1et8PyK96+Eaq3htVNK7WGLcCcqejOaNw98Ukqti8uDj4QaJv1NI8rnsEu3aavOc+m35l/IyDr2APtqbkr/CgnQZ/N/2+XN5R8BXsvmEuM4OTX7t576Nu8hB/oBSvZw/f2iLvLWxEz/MFBr5C7wZufgYuRFHW/sMCeCbPCPaBPspO0FYI13lyVbm9ZBGj+IE2oA92yK9+BBfao8GZ/NkaeCbvYHZvpFU7smS1Alt7UMZwPQ8eusHkF1jtXl87CBOMMa7B84jnuL23sF8GjsFG7011DcaM7puqbPhKXuZqvQ/r4Jn8BLPvdTaPMPkleF6pHNYsd/OrvIA7vHaIi6AmuQOTly6u97shcsQop03jgiPs207wmaWiozdI3un8ALJ7U53CfFCtDjygO2RYkGOz04bY97qmbgHfBHfuTtK8zjHsA11bw9fqL1qCyckoJ7cVu9Zm11asyLLya47wET0398Z8Oy1AP++NNc31q1I4eEd3olznzYznvADH94HO0yX6r9jA1wYFmXfvLVoh73S+YGrXefmKuAYeyxTBjNfWIwkbELrr6QIbbW+/hys993E92xmLWh5AJu/1NbrzNXMSawR55uN6bBEu7sZxzDyV2eV+ryOwqpVucCeaxP2AWJWbfQ/X0eNuLtwL1roErLvrUvdAWTwDz6CXCVuPS4NL9Jh9wRZ551dttQeqRYUbzFpfVzKil+hd9gVr6MDRXTPAKcOaHRw9V7owrp3RY+YFe+gwk9epPZQnMfBiXIruyrz7Gb3LvGARHeblR2oVEvmEBDx2d5zUvUvCuAt6TL9gEb3zDVL7WOPpZJ+K8HHFmC567gt6l37BJvocpHZNjTKUDO0xuBqXyj5V+ovkM3KNU2q3jg4b3DVZjMzi7xHunfTTni4ZrgtSSu0cuuAGGceg/oWSDQj9SQ0j5jAbhM6zCoVM6TR6LEHvXkVJG8v+Dy0gtWtqFqEwA3dCxHHZWkiZ0s+k12bHAhrrCAW/IL8ptIB6u2Z8E1bMd1FPLg0UWboW/YzMIFKKZuxBEwGDnLw6mhXieExPz7JVPoRl0OMLQ8xClj/zP0rQlUrvdP6A1K5x2tznYZ6mJE+e+y1t1Zn0YtI8eof/WUQXewIvkJDOGyqbz1WlMWN6FskparBn0ovaY5aRiXRiFpGNBHXooDkJdUTHdXb9sgROsuqMvFEXUgX65UKW8XIT2MsV5LB6jdri2ZH9EaX0qacqRV6aflY7DP1ytzrM+1XoIEensXgme4NPsTl5EKuabRFIhXsBQI+FG8ULqCqvLlRF1CfPUfsspPGMp2gTh97l0Vlh3lJAs7+ppAuKapToPlWqQY1sadLW+1mJ3oGidyhY4S+VLCAWr4zj6eIkJlt1gidPOcfGo8cdGHrMMVdlPZBFNuoHZILrLMwKUaIoQjlVs4TgjUO/XpgJfR1r6fquDizSKTs7VaA7Ybv6l6pJArrKw9NyuUXXGEjf1VOplcJQqwxQg3qaqqtn2ZjImzVsALrkN5WAhjdVZ7/OtCPtfaru6u2hgzq7cmQ/nD8G599J3+0p6/hsviWiS3kkEWyVvYPKk8qZx2tFGuXfcy+nbJEGvULtXaa4UaX0TlzLz53XzM5R9u5Enlh+V6BL0lCqSq24rANC70AeIlT6ufNCMvjy51zGGi+nRaeUK4tqkeiQoMZVZjDlp2MqU07u4NWPOHDo3OxjlxV2ioZNaCunKCGLLNTxXNkk3NBG7jQOXigrcYwMeYe7TPGbQkAuXlWgI8XH41KXrELT+6NsEK8wXoPXcDYW3oZDhyRv6tGt+PhX5BZSurENJJcItpbUGt3KrBU3qufJuoWW1xZIbVI5EVF6eFSVIh/WFcWpdgU0CaMa2MtxHeflspKkqk7RqoBiGkVpsozmkF7OcdQlmlalCyBXzkMUMfwaF8tlwdxfgR7XCOfKzA0Zy/016KBI1pVrvczXJ0iDj5Q1eBOpMc6B0OUMZZUGvgzaOjofuKPeDDJ4T4Fe1Oa2yK1LU3TVuB5TAmm8MqsDoUOUrpiBKSuyBxy5Dp3LTipbXw8dNN0qZyjr8Lg6hZMNbqpAtssLFh3T8WHrShTqy78ItXbojK5IXwT0CvZaWoetGZUjFBFNF73hsfrxJhFdD1PLzcHWDkoJgmKmtYsldwbKp3xoFGGJdMX1aAHNOMpDmnJ+PcZqPcvcFAUqSdatJauFDlooLA9ky1UVaIMPRq6rmGxsFf0nxN7l6EG5ZAWbvWSLBRXzThxKXXR9cABaIi1PWssJCLzBPykHdi26sGZata5IdTUnoLFNWqU5TzbGSPJ8HbziUR8dOuX1pYtEZZ2FvZoV0Ngmn2Y+z67jx/VsNbjcxcvULLLIccV7otc7yMHLK7LhuYFo9LF0IbxKc/TP3DpJpdYB5DXWR1+nWdGBbPbssjxjl1g4tfxPnHRUoFPvjJXooJRVmr1cV81h05csplGsEpVorppR/7JKQOuI5BFNeMlAsElr/vyDvLN3BaFeZ6eVNOgxBB32TLd0bLsumkM85FSip6ObPKhRkCvnVvhrqN5ROeMGsnfZ2Eato/lEH02UP7MOQRdhwegV5B0IuXzeiVoz94ZGz1bISpM3GjvmX5eM5nLLgKADH+yVTDHQG1agVscWkvk5mcWXje5yjVeumJOig7o67DF+2XJJeuOCORq92J9Cjc6zN4AOsneplyP0NDBa6fkm4DIff2k0y24f/TfM3iVhLGH25UHHNMVmBZL1NFzzJW6OLdjy6PH1vXp00GISaSzHPgCBLcQ7xYPrkhSG06fCw8uux7k52AOO7kACxj7HjJ1+KVJ2WRxPNborx7KDDty8QDK57rPbdMB31LtIsRuNEHZQjWYWktA/W0AHVeDlaVvEfRL+7LwoRxeebhRQmPuAQtexQzfnEdvt8w/3bdHoQbH9Eq9IsYPrExKpm6v2c8DtqCRDW8R/FHIxTSZDqdr16PT/0aFzBiN0FKjSxSjWF/apMIjnoiJd5lJXVl0ie7ZxizDHGAvvvW71IXsWApauSnN1yT6DeK2XFs85eRk6+7jqRWhG4b2yay8C3VFZfHhf6Okd9BqqTPbFNnPs2M41tKvEYa/oCu+NZRcXAptqk/l3Itt7C7umJJNiQ0k2pONayq2UlLEo0OUX5wIL5GSpi3TrrRiPXh7mg91pDjOLLF2fAN1hU4zfyUH8tI6RxSflDqrtHpMJmlTPRXBy4l4FuRhYfB7MCibftEDNXdxnMVDsj48vxl83zq23/T9OwBvKSuozqr52xFt8UbBodb85qHeXRHLq7QUNUphyfGtxl0HQcrGiSXymrtssGz8RUYY1Le4t+W2udKJZwW8ytJ/V3tKOovCDMQSly+K4qxg4unNvb2cfWfjJEMLmkhV7w+NrNRcn38K+ydDKe4EuuPcKb4T38cUUVMHe7G7ZOHJ+TJdtNcaIQdbuXM79UK4ibJ9cCOSqD/vB1+OZMxobZceQ82c6Qg6BQG3Kc/7c0eUrG7R5lM659WIk0tW6zoLYMfki9MFOTe2UDt0bvlA65+MUu2hyAj7Di76p1Em00g3o6gvqoCt+Sh16shV6gYVTPPZ2YVdt2VJH4DFcJtzTXeDzzNDPfWVCmbzb+7Kdy8y/cEf6seaOONoJsUv49eOZw0ktd3hUNxe8e1B9AMJVkE86Fl/AHNJp0+hjnLHzESxJIM79LNjn/XKJBvT391xbUe1v5PmVXCmSRLjimYnJM909g/+2UbDrIlUujGsB9ug+k8E9GHLsvZfa5Yt39FG93OlW+HO45wZad4Rz5ntevTz2B/qYXr78bHIas0lgI57EnMKb+3oDcD5f0535oBb4yVY0u3jkes99NzL7ZwNw3rmbkadBnUlk40iOm+/1fmJDnD8fRmexcyc34vt5KbGJq5OyZyeQP8P39Ji/G5xDLpKTyPz0bSNXlw7v0mJxSv8CyeV/PS/MuPmTyIOk1tnbJt1dxZ7Ru4v3P5qO/+v5p2vKzZOTJSaGEwVzKAQlMpu/4Pe875cff9hoZ/Pn9/vHVw1sgdzHHkYrCOJ0LyB7yZ/dgq/F4uf3YvFV/l4D2+V9e2h46jYtb0bs4vjetDC1CaKfa2iYnY/rmia/o0biIDIczi2xD1tlp+N2/2BtnYNZfw/G1Q22JB5z9LiNbn6RR98otokqnJ01cnp9GHEAx3EiZB0ZsbfU4YeMsdfbCE6UjVlMS8aNK94bMcb+aRk8k51RYOc4DSueGdOCxDRd0cunWXBDxqqw1gY4rXJi1b8x8krMjD7t8c3Aey4zmCeWBnOZbA5mRh8kjcR23hPlfEnQRC+n5GRm9A7ZW3d33mhMqTzcmqfmQHmMjCo31uG9ER2+BZH+sF07Eu8MFe8E1uA9Fpw0MqLJ5DExVHzq7PsWHJ7n9WlTJ+HOdhCjkU+zuDbTfDJ168F7g2nC5OWHBv26RNZbU6tPQ+zU7k3pPbe/d2hwf2k3YIfIa2IY3GX0yZ0BvZca+pBNJcJlG95NlPvA1OqzQTinh+Onlz7tuRTqVuCpxJ+Bqb/L6FPLf8rwq/izK/p3Y8J+VxDewNRp+BOpAZ8p3xnfPY1c+Q3w8pdHT8NxwEfQATk2k6cgpPvp1ILPMZzxfjjtj0aDgXtemzAYjEb96XCfOGK3In5y3+6DNgrp3tdweBRPkP7jRGcpf5fts+Bvb2rprMwOobnHQ0kQRvctxi8QWZ+IcZQDFuIHx3bDF6DMtnX8faUEfrC92VhWKfPJIagx1mu5o+OsrWeKDGU+2abqsYztL0+Pfzl3Id3XYxRaUn6QurXj7K8YyKCynmx9v2bXJ36K/dZ46aUJWU2OSWr8JkusUxt3lqfZP4l9lvnjZLd0UgMgoFouKaB397P1P9G3K2Wzfp2ctsso9LNOQIp4PP+PZP+RIBXfD0ly2J0mr+t/qmfDJN6sXmeTz+Nxtz0sU0mS9I/Ddrc7niaz19UGtSX8/2JH/gMKrkpascAWVAAAAABJRU5ErkJggg==;" parent="1" vertex="1">
          <mxGeometry x="740" y="429.99999999999994" width="61.88" height="50" as="geometry" />
        </mxCell>
        <mxCell id="blW2u0BSeLsFs8bw2e72-51" value="" style="group" parent="1" vertex="1" connectable="0">
          <mxGeometry x="250" y="320" width="157" height="110" as="geometry" />
        </mxCell>
        <mxCell id="blW2u0BSeLsFs8bw2e72-55" value="" style="group" parent="blW2u0BSeLsFs8bw2e72-51" vertex="1" connectable="0">
          <mxGeometry width="157" height="110" as="geometry" />
        </mxCell>
        <mxCell id="blW2u0BSeLsFs8bw2e72-25" value="" style="rounded=0;whiteSpace=wrap;html=1;strokeColor=#3700CC;fontColor=#ffffff;fillColor=none;" parent="blW2u0BSeLsFs8bw2e72-55" vertex="1">
          <mxGeometry width="138.84353741496597" height="110" as="geometry" />
        </mxCell>
        <mxCell id="blW2u0BSeLsFs8bw2e72-21" value="" style="shadow=0;dashed=0;html=1;strokeColor=none;fillColor=#4495D1;labelPosition=center;verticalLabelPosition=bottom;verticalAlign=top;align=center;outlineConnect=0;shape=mxgraph.veeam.2d.virtual_machine;" parent="blW2u0BSeLsFs8bw2e72-55" vertex="1">
          <mxGeometry x="43.89591836734696" y="35" width="51.0517006802721" height="50" as="geometry" />
        </mxCell>
        <mxCell id="blW2u0BSeLsFs8bw2e72-87" value="&lt;font&gt;&lt;font style=&quot;font-size: 15px&quot;&gt;3b. One-off Dynos&lt;/font&gt;&lt;br&gt;&lt;/font&gt;" style="text;strokeColor=none;fillColor=none;html=1;fontSize=24;fontStyle=1;verticalAlign=middle;align=center;" parent="blW2u0BSeLsFs8bw2e72-55" vertex="1">
          <mxGeometry x="-3.7380952380952377" y="-5" width="146.31972789115645" height="40" as="geometry" />
        </mxCell>
        <mxCell id="blW2u0BSeLsFs8bw2e72-56" style="edgeStyle=orthogonalEdgeStyle;rounded=0;orthogonalLoop=1;jettySize=auto;html=1;exitX=0.5;exitY=1;exitDx=0;exitDy=0;entryX=0.5;entryY=0;entryDx=0;entryDy=0;" parent="1" source="blW2u0BSeLsFs8bw2e72-25" target="blW2u0BSeLsFs8bw2e72-18" edge="1">
          <mxGeometry relative="1" as="geometry" />
        </mxCell>
        <mxCell id="blW2u0BSeLsFs8bw2e72-57" style="edgeStyle=orthogonalEdgeStyle;rounded=0;orthogonalLoop=1;jettySize=auto;html=1;exitX=0.5;exitY=1;exitDx=0;exitDy=0;entryX=1;entryY=0.5;entryDx=0;entryDy=0;" parent="1" source="blW2u0BSeLsFs8bw2e72-19" target="blW2u0BSeLsFs8bw2e72-18" edge="1">
          <mxGeometry relative="1" as="geometry" />
        </mxCell>
        <mxCell id="blW2u0BSeLsFs8bw2e72-61" style="edgeStyle=orthogonalEdgeStyle;rounded=0;orthogonalLoop=1;jettySize=auto;html=1;exitX=1;exitY=0.25;exitDx=0;exitDy=0;entryX=0;entryY=0.5;entryDx=0;entryDy=0;" parent="1" source="blW2u0BSeLsFs8bw2e72-19" target="blW2u0BSeLsFs8bw2e72-48" edge="1">
          <mxGeometry relative="1" as="geometry" />
        </mxCell>
        <mxCell id="blW2u0BSeLsFs8bw2e72-62" style="edgeStyle=orthogonalEdgeStyle;rounded=0;orthogonalLoop=1;jettySize=auto;html=1;exitX=1;exitY=0.5;exitDx=0;exitDy=0;entryX=0;entryY=0.5;entryDx=0;entryDy=0;" parent="1" source="blW2u0BSeLsFs8bw2e72-19" target="blW2u0BSeLsFs8bw2e72-45" edge="1">
          <mxGeometry relative="1" as="geometry" />
        </mxCell>
        <mxCell id="blW2u0BSeLsFs8bw2e72-63" style="edgeStyle=orthogonalEdgeStyle;rounded=0;orthogonalLoop=1;jettySize=auto;html=1;exitX=1;exitY=0.75;exitDx=0;exitDy=0;entryX=0;entryY=0.5;entryDx=0;entryDy=0;" parent="1" source="blW2u0BSeLsFs8bw2e72-19" target="blW2u0BSeLsFs8bw2e72-50" edge="1">
          <mxGeometry relative="1" as="geometry" />
        </mxCell>
        <mxCell id="blW2u0BSeLsFs8bw2e72-69" value="" style="outlineConnect=0;fontColor=#232F3E;gradientColor=none;fillColor=#277116;strokeColor=none;dashed=0;verticalLabelPosition=bottom;verticalAlign=top;align=center;html=1;fontSize=12;fontStyle=0;aspect=fixed;pointerEvents=1;shape=mxgraph.aws4.bucket_with_objects;" parent="1" vertex="1">
          <mxGeometry x="648.36" y="148" width="48.08" height="50" as="geometry" />
        </mxCell>
        <mxCell id="blW2u0BSeLsFs8bw2e72-70" value="" style="outlineConnect=0;fontColor=#232F3E;gradientColor=#945DF2;gradientDirection=north;fillColor=#5A30B5;strokeColor=#ffffff;dashed=0;verticalLabelPosition=bottom;verticalAlign=top;align=center;html=1;fontSize=12;fontStyle=0;aspect=fixed;shape=mxgraph.aws4.resourceIcon;resIcon=mxgraph.aws4.cloudfront;" parent="1" vertex="1">
          <mxGeometry x="571.36" y="148" width="50" height="50" as="geometry" />
        </mxCell>
        <mxCell id="blW2u0BSeLsFs8bw2e72-71" value="" style="endArrow=classic;html=1;" parent="1" source="blW2u0BSeLsFs8bw2e72-70" target="blW2u0BSeLsFs8bw2e72-69" edge="1">
          <mxGeometry width="50" height="50" relative="1" as="geometry">
            <mxPoint x="698.36" y="320" as="sourcePoint" />
            <mxPoint x="748.36" y="270" as="targetPoint" />
          </mxGeometry>
        </mxCell>
        <mxCell id="blW2u0BSeLsFs8bw2e72-79" value="" style="shape=image;verticalLabelPosition=bottom;labelBackgroundColor=#ffffff;verticalAlign=top;aspect=fixed;imageAspect=0;image=https://external-content.duckduckgo.com/iu/?u=https%3A%2F%2Fzenkit.com%2Fwp-content%2Fuploads%2F2019%2F11%2FMailjet_logo.png&amp;f=1&amp;nofb=1;" parent="1" vertex="1">
          <mxGeometry x="127.05" y="138" width="60" height="60" as="geometry" />
        </mxCell>
        <mxCell id="blW2u0BSeLsFs8bw2e72-83" value="&lt;font style=&quot;font-size: 15px&quot;&gt;Heroku Enterprise Space&lt;/font&gt;" style="text;strokeColor=none;fillColor=none;html=1;fontSize=24;fontStyle=1;verticalAlign=middle;align=center;" parent="1" vertex="1">
          <mxGeometry x="425.6" y="510" width="254" height="40" as="geometry" />
        </mxCell>
        <mxCell id="blW2u0BSeLsFs8bw2e72-105" style="edgeStyle=orthogonalEdgeStyle;rounded=0;orthogonalLoop=1;jettySize=auto;html=1;exitX=0.25;exitY=0;exitDx=0;exitDy=0;entryX=0.429;entryY=1.033;entryDx=0;entryDy=0;entryPerimeter=0;" parent="1" source="blW2u0BSeLsFs8bw2e72-84" target="blW2u0BSeLsFs8bw2e72-104" edge="1">
          <mxGeometry relative="1" as="geometry" />
        </mxCell>
        <mxCell id="blW2u0BSeLsFs8bw2e72-84" value="&lt;font&gt;&lt;font style=&quot;font-size: 15px&quot;&gt;3c. Worker Dynos&lt;/font&gt;&lt;br&gt;&lt;/font&gt;" style="text;strokeColor=none;fillColor=none;html=1;fontSize=24;fontStyle=1;verticalAlign=middle;align=center;" parent="1" vertex="1">
          <mxGeometry x="71.85" y="315" width="164" height="40" as="geometry" />
        </mxCell>
        <mxCell id="blW2u0BSeLsFs8bw2e72-85" value="&lt;font&gt;&lt;font style=&quot;font-size: 15px&quot;&gt;3a. Web Dynos&lt;/font&gt;&lt;br&gt;&lt;/font&gt;" style="text;strokeColor=none;fillColor=none;html=1;fontSize=24;fontStyle=1;verticalAlign=middle;align=center;" parent="1" vertex="1">
          <mxGeometry x="465.9" y="325" width="164" height="25" as="geometry" />
        </mxCell>
        <mxCell id="blW2u0BSeLsFs8bw2e72-3" value="" style="shadow=0;dashed=0;html=1;strokeColor=none;fillColor=#4495D1;labelPosition=center;verticalLabelPosition=bottom;verticalAlign=top;align=center;outlineConnect=0;shape=mxgraph.veeam.2d.virtual_machine;" parent="1" vertex="1">
          <mxGeometry x="476.1" y="355" width="47.8" height="50" as="geometry" />
        </mxCell>
        <mxCell id="blW2u0BSeLsFs8bw2e72-15" value="" style="shadow=0;dashed=0;html=1;strokeColor=none;fillColor=#4495D1;labelPosition=center;verticalLabelPosition=bottom;verticalAlign=top;align=center;outlineConnect=0;shape=mxgraph.veeam.2d.virtual_machine;" parent="1" vertex="1">
          <mxGeometry x="541" y="355" width="47.8" height="50" as="geometry" />
        </mxCell>
        <mxCell id="blW2u0BSeLsFs8bw2e72-16" value="" style="shadow=0;dashed=0;html=1;strokeColor=none;fillColor=#4495D1;labelPosition=center;verticalLabelPosition=bottom;verticalAlign=top;align=center;outlineConnect=0;shape=mxgraph.veeam.2d.virtual_machine;" parent="1" vertex="1">
          <mxGeometry x="610" y="355" width="47.8" height="50" as="geometry" />
        </mxCell>
        <mxCell id="blW2u0BSeLsFs8bw2e72-31" value="" style="shadow=0;dashed=0;html=1;strokeColor=none;fillColor=#4495D1;labelPosition=center;verticalLabelPosition=bottom;verticalAlign=top;align=center;outlineConnect=0;shape=mxgraph.veeam.2d.virtual_machine;" parent="1" vertex="1">
          <mxGeometry x="410" y="355" width="47.8" height="50" as="geometry" />
        </mxCell>
        <mxCell id="blW2u0BSeLsFs8bw2e72-88" value="&lt;span style=&quot;font-size: 15px&quot;&gt;2&lt;/span&gt;" style="text;strokeColor=none;fillColor=none;html=1;fontSize=24;fontStyle=1;verticalAlign=middle;align=center;" parent="1" vertex="1">
          <mxGeometry x="529.8" y="230" width="36.2" height="40" as="geometry" />
        </mxCell>
        <mxCell id="blW2u0BSeLsFs8bw2e72-90" value="&lt;span style=&quot;font-size: 15px&quot;&gt;5&lt;/span&gt;" style="text;strokeColor=none;fillColor=none;html=1;fontSize=24;fontStyle=1;verticalAlign=middle;align=center;" parent="1" vertex="1">
          <mxGeometry x="578.26" y="108" width="36.2" height="40" as="geometry" />
        </mxCell>
        <mxCell id="blW2u0BSeLsFs8bw2e72-91" value="&lt;span style=&quot;font-size: 15px&quot;&gt;6&lt;/span&gt;" style="text;strokeColor=none;fillColor=none;html=1;fontSize=24;fontStyle=1;verticalAlign=middle;align=center;" parent="1" vertex="1">
          <mxGeometry x="654.3" y="110" width="36.2" height="40" as="geometry" />
        </mxCell>
        <mxCell id="blW2u0BSeLsFs8bw2e72-92" value="&lt;span style=&quot;font-size: 15px&quot;&gt;7&lt;/span&gt;" style="text;strokeColor=none;fillColor=none;html=1;fontSize=24;fontStyle=1;verticalAlign=middle;align=center;" parent="1" vertex="1">
          <mxGeometry x="805" y="350" width="36.2" height="40" as="geometry" />
        </mxCell>
        <mxCell id="blW2u0BSeLsFs8bw2e72-93" value="&lt;span style=&quot;font-size: 15px&quot;&gt;8&lt;/span&gt;" style="text;strokeColor=none;fillColor=none;html=1;fontSize=24;fontStyle=1;verticalAlign=middle;align=center;" parent="1" vertex="1">
          <mxGeometry x="805" y="435" width="36.2" height="40" as="geometry" />
        </mxCell>
        <mxCell id="blW2u0BSeLsFs8bw2e72-94" value="&lt;span style=&quot;font-size: 15px&quot;&gt;9&lt;/span&gt;" style="text;strokeColor=none;fillColor=none;html=1;fontSize=24;fontStyle=1;verticalAlign=middle;align=center;" parent="1" vertex="1">
          <mxGeometry x="801.88" y="260" width="36.2" height="40" as="geometry" />
        </mxCell>
        <mxCell id="blW2u0BSeLsFs8bw2e72-95" value="&lt;span style=&quot;font-size: 15px&quot;&gt;11&lt;/span&gt;" style="text;strokeColor=none;fillColor=none;html=1;fontSize=24;fontStyle=1;verticalAlign=middle;align=center;" parent="1" vertex="1">
          <mxGeometry x="643.4" y="658" width="36.2" height="40" as="geometry" />
        </mxCell>
        <mxCell id="blW2u0BSeLsFs8bw2e72-96" value="&lt;span style=&quot;font-size: 15px&quot;&gt;10. Notifications&lt;/span&gt;" style="text;strokeColor=none;fillColor=none;html=1;fontSize=24;fontStyle=1;verticalAlign=middle;align=center;" parent="1" vertex="1">
          <mxGeometry x="95" y="103" width="170" height="40" as="geometry" />
        </mxCell>
        <mxCell id="blW2u0BSeLsFs8bw2e72-78" value="" style="shape=image;verticalLabelPosition=bottom;labelBackgroundColor=#ffffff;verticalAlign=top;aspect=fixed;imageAspect=0;image=https://ga1.imgix.net/logo/o/91466-1568040854-4819875?auto=format&amp;q=50&amp;fit=fill;" parent="1" vertex="1">
          <mxGeometry x="63.150000000000006" y="143" width="50" height="50" as="geometry" />
        </mxCell>
        <mxCell id="blW2u0BSeLsFs8bw2e72-99" value="&lt;span style=&quot;font-size: 15px&quot;&gt;4&lt;/span&gt;" style="text;strokeColor=none;fillColor=none;html=1;fontSize=24;fontStyle=1;verticalAlign=middle;align=center;" parent="1" vertex="1">
          <mxGeometry x="270" y="450" width="36.2" height="40" as="geometry" />
        </mxCell>
        <mxCell id="blW2u0BSeLsFs8bw2e72-100" value="&lt;span style=&quot;font-size: 15px&quot;&gt;4b&lt;/span&gt;" style="text;strokeColor=none;fillColor=none;html=1;fontSize=24;fontStyle=1;verticalAlign=middle;align=center;" parent="1" vertex="1">
          <mxGeometry x="270" y="567.5" width="36.2" height="40" as="geometry" />
        </mxCell>
        <mxCell id="blW2u0BSeLsFs8bw2e72-101" value="&lt;span style=&quot;font-size: 15px&quot;&gt;12&lt;/span&gt;" style="text;strokeColor=none;fillColor=none;html=1;fontSize=24;fontStyle=1;verticalAlign=middle;align=center;" parent="1" vertex="1">
          <mxGeometry x="552.6" y="658" width="36.2" height="40" as="geometry" />
        </mxCell>
        <mxCell id="blW2u0BSeLsFs8bw2e72-103" value="&lt;span style=&quot;font-size: 15px&quot;&gt;13&lt;/span&gt;" style="text;strokeColor=none;fillColor=none;html=1;fontSize=24;fontStyle=1;verticalAlign=middle;align=center;" parent="1" vertex="1">
          <mxGeometry x="465.90000000000003" y="658" width="36.2" height="40" as="geometry" />
        </mxCell>
        <mxCell id="blW2u0BSeLsFs8bw2e72-107" value="" style="shape=image;verticalLabelPosition=bottom;labelBackgroundColor=#ffffff;verticalAlign=top;aspect=fixed;imageAspect=0;image=https://external-content.duckduckgo.com/iu/?u=https%3A%2F%2Ftech.currencyfair.com%2Fassets%2Fimages%2Fposts%2Fonesignal.png&amp;f=1&amp;nofb=1;" parent="1" vertex="1">
          <mxGeometry x="195" y="143" width="45" height="45" as="geometry" />
        </mxCell>
        <mxCell id="zjrWDTnNjmW-lEqMyYDh-4" style="edgeStyle=orthogonalEdgeStyle;rounded=0;orthogonalLoop=1;jettySize=auto;html=1;exitX=0.5;exitY=1;exitDx=0;exitDy=0;" edge="1" parent="1" source="zjrWDTnNjmW-lEqMyYDh-1" target="blW2u0BSeLsFs8bw2e72-1">
          <mxGeometry relative="1" as="geometry" />
        </mxCell>
        <mxCell id="zjrWDTnNjmW-lEqMyYDh-1" value="" style="shape=image;html=1;verticalAlign=top;verticalLabelPosition=bottom;labelBackgroundColor=#ffffff;imageAspect=0;aspect=fixed;image=https://cdn4.iconfinder.com/data/icons/logos-brands-5/24/cloudflare-128.png" vertex="1" parent="1">
          <mxGeometry x="483.7" y="131.2" width="61.8" height="61.8" as="geometry" />
        </mxCell>
        <mxCell id="zjrWDTnNjmW-lEqMyYDh-5" value="&lt;span style=&quot;font-size: 15px&quot;&gt;1&lt;/span&gt;" style="text;strokeColor=none;fillColor=none;html=1;fontSize=24;fontStyle=1;verticalAlign=middle;align=center;" vertex="1" parent="1">
          <mxGeometry x="523.6999999999999" y="120" width="36.2" height="40" as="geometry" />
        </mxCell>
        <mxCell id="zjrWDTnNjmW-lEqMyYDh-7" value="" style="shape=image;verticalLabelPosition=bottom;labelBackgroundColor=#ffffff;verticalAlign=top;aspect=fixed;imageAspect=0;image=https://external-content.duckduckgo.com/iu/?u=https%3A%2F%2Fwww.twilio.com%2Fmarketing%2Fbundles%2Fcompany-brand%2Fimg%2Flogos%2Fred%2Ftwilio-mark-red.png&amp;f=1&amp;nofb=1;" vertex="1" parent="1">
          <mxGeometry x="235.99" y="123.50000000000001" width="84.01" height="84.01" as="geometry" />
        </mxCell>
        <mxCell id="zjrWDTnNjmW-lEqMyYDh-8" style="edgeStyle=orthogonalEdgeStyle;rounded=0;orthogonalLoop=1;jettySize=auto;html=1;exitX=0.25;exitY=0;exitDx=0;exitDy=0;entryX=0.75;entryY=1;entryDx=0;entryDy=0;" edge="1" parent="1" source="blW2u0BSeLsFs8bw2e72-87" target="blW2u0BSeLsFs8bw2e72-104">
          <mxGeometry relative="1" as="geometry" />
        </mxCell>
        <mxCell id="zjrWDTnNjmW-lEqMyYDh-9" value="" style="shape=image;verticalLabelPosition=bottom;labelBackgroundColor=#ffffff;verticalAlign=top;aspect=fixed;imageAspect=0;image=https://external-content.duckduckgo.com/iu/?u=https%3A%2F%2Fcdn.freebiesupply.com%2Flogos%2Fthumbs%2F1x%2Fstripe-2-logo.png&amp;f=1&amp;nofb=1;" vertex="1" parent="1">
          <mxGeometry x="348.42" y="131.25" width="70" height="52.5" as="geometry" />
        </mxCell>
        <mxCell id="zjrWDTnNjmW-lEqMyYDh-12" style="edgeStyle=orthogonalEdgeStyle;rounded=0;orthogonalLoop=1;jettySize=auto;html=1;exitX=0.75;exitY=0;exitDx=0;exitDy=0;entryX=0.25;entryY=1;entryDx=0;entryDy=0;" edge="1" parent="1" source="blW2u0BSeLsFs8bw2e72-87" target="zjrWDTnNjmW-lEqMyYDh-9">
          <mxGeometry relative="1" as="geometry" />
        </mxCell>
      </root>
    </mxGraphModel>
  </diagram>
</mxfile>
